<svg width="16" height="16" viewBox="0 0 16 16" fill="none" xmlns="http://www.w3.org/2000/svg">
<path d="M11.9122 5.75363C11.8528 5.67668 11.7665 5.61264 11.6621 5.56808C11.5576 5.52351 11.4389 5.50001 11.3179 5.5H4.68196C4.56108 5.50004 4.44238 5.52354 4.33802 5.56809C4.23365 5.61263 4.14737 5.67663 4.08799 5.75353C4.02861 5.83042 3.99827 5.91746 4.00008 6.00573C4.00188 6.09401 4.03576 6.18035 4.09826 6.25591L7.41624 10.2597C7.47702 10.3331 7.56267 10.3937 7.66493 10.4358C7.76718 10.4779 7.88257 10.5 7.99994 10.5C8.11732 10.5 8.23271 10.4779 8.33496 10.4358C8.43721 10.3937 8.52287 10.3331 8.58364 10.2597L11.9016 6.25591C11.9641 6.18038 11.9981 6.09407 11.9999 6.00582C12.0018 5.91757 11.9715 5.83054 11.9122 5.75363Z" fill="#7183A6"/>
</svg>
