<svg width="19" height="19" viewBox="0 0 19 19" fill="none" xmlns="http://www.w3.org/2000/svg">
<path d="M11.9206 3.20186C12.07 2.81305 12.5086 2.61563 12.8804 2.80333C13.8294 3.28238 14.6685 3.95909 15.3394 4.79107C16.1686 5.81934 16.7116 7.04833 16.9135 8.35377C17.1153 9.6592 16.9689 10.9948 16.489 12.2255C16.009 13.4562 15.2127 14.5383 14.1803 15.3625C13.148 16.1866 11.9164 16.7236 10.61 16.9191C9.30358 17.1145 7.96872 16.9615 6.7404 16.4756C5.51208 15.9897 4.43385 15.188 3.61475 14.1517C2.952 13.3131 2.47792 12.3451 2.22093 11.3135C2.12023 10.9093 2.40987 10.5254 2.82212 10.4658C3.23438 10.4062 3.61226 10.694 3.72315 11.0955C3.93559 11.8647 4.30023 12.5863 4.79818 13.2163C5.45257 14.0442 6.31398 14.6847 7.29531 15.0729C8.27664 15.4612 9.34308 15.5834 10.3868 15.4272C11.4305 15.2711 12.4145 14.8421 13.2392 14.1836C14.0639 13.5252 14.7002 12.6607 15.0836 11.6774C15.467 10.6942 15.584 9.6272 15.4227 8.58427C15.2615 7.54133 14.8277 6.55947 14.1652 5.73797C13.6611 5.11287 13.0382 4.59749 12.3352 4.21998C11.9682 4.02293 11.7712 3.59068 11.9206 3.20186Z" fill="white"/>
</svg>
